<?xml version="1.0" standalone="no"?>
<!DOCTYPE svg PUBLIC "-//W3C//DTD SVG 20010904//EN"
 "http://www.w3.org/TR/2001/REC-SVG-20010904/DTD/svg10.dtd">
<svg version="1.0" xmlns="http://www.w3.org/2000/svg"
 width="1000.000000pt" height="1000.000000pt" viewBox="0 0 1000.000000 1000.000000"
 preserveAspectRatio="xMidYMid meet">
<metadata>
Created by potrace 1.14, written by Peter Selinger 2001-2017
</metadata>
<g transform="translate(0.000000,1000.000000) scale(0.100000,-0.100000)"
fill="#000000" stroke="none">
<path d="M1165 8808 c0 -656 3 -1197 7 -1203 5 -8 250 -13 300 -6 5 1 9 451
10 1001 l3 1000 77 -228 c42 -125 145 -427 228 -672 250 -736 299 -880 336
-990 20 -58 38 -107 40 -109 9 -10 278 -6 289 4 7 6 28 57 48 115 33 99 106
309 282 815 42 121 85 245 95 275 18 55 124 356 174 500 15 41 41 116 57 165
17 50 32 91 34 93 1 1 3 -431 3 -960 1 -530 1 -974 1 -988 l1 -25 150 0 c82 1
152 4 156 8 5 5 10 2309 5 2385 -1 9 -52 12 -219 12 l-217 0 -87 -252 c-137
-401 -312 -911 -408 -1188 -48 -140 -112 -328 -141 -417 -30 -90 -56 -163 -59
-163 -3 0 -156 454 -340 1008 l-335 1007 -245 3 -246 2 1 -1192z"/>
<path d="M3455 6202 c-1 -2 1 -17 6 -35 5 -18 50 -185 99 -372 49 -187 94
-356 100 -375 6 -19 23 -84 39 -145 45 -173 237 -900 271 -1025 11 -41 41
-154 66 -250 26 -96 50 -182 54 -190 7 -11 39 -14 169 -15 l162 0 19 65 c10
36 64 227 119 425 55 198 136 491 181 650 45 160 83 297 85 305 2 8 26 96 54
195 28 99 66 241 84 315 l34 135 16 -55 c8 -30 27 -98 41 -150 25 -97 92 -338
210 -763 72 -259 76 -272 205 -742 22 -82 47 -172 55 -200 8 -27 23 -79 33
-115 l18 -64 154 -1 c84 0 155 4 158 8 5 9 14 38 138 492 93 341 102 373 125
455 10 36 30 110 44 165 15 55 31 114 37 130 8 25 107 383 155 565 8 30 31
114 51 185 19 72 46 168 58 215 13 47 30 109 38 138 9 28 14 52 14 53 -1 1
-75 2 -165 3 l-163 1 -5 -25 c-3 -14 -8 -34 -11 -45 -3 -11 -5 -21 -5 -22 1
-2 -5 -21 -13 -43 -8 -22 -14 -43 -14 -45 1 -10 -13 -71 -53 -230 -22 -88 -42
-171 -44 -185 -3 -14 -10 -43 -16 -65 -5 -22 -12 -47 -14 -55 -2 -8 -13 -53
-24 -100 -12 -47 -23 -92 -25 -100 -2 -8 -22 -91 -45 -185 -103 -421 -179
-737 -196 -822 -17 -85 -33 -119 -35 -75 0 9 -2 25 -4 34 -2 9 -6 34 -9 55 -6
41 -12 71 -46 233 -34 160 -109 446 -185 705 -8 28 -66 235 -130 460 -63 226
-122 433 -130 460 l-15 50 -192 0 c-158 0 -192 -3 -199 -15 -8 -14 -44 -137
-54 -184 -3 -11 -11 -40 -19 -65 -8 -25 -16 -55 -19 -66 -6 -24 -230 -822
-257 -915 -61 -209 -123 -437 -160 -592 -23 -98 -45 -178 -49 -178 -3 0 -18
62 -33 138 -15 76 -63 293 -107 482 -44 190 -125 543 -181 785 -57 242 -112
478 -124 525 l-21 84 -163 1 c-90 0 -165 -1 -167 -3z"/>
<path d="M7595 2482 c-27 -1 -90 -9 -139 -18 -357 -63 -623 -254 -778 -559
-55 -106 -96 -232 -112 -337 -14 -90 -16 -105 -21 -143 -7 -54 -7 -279 0 -335
24 -199 81 -404 152 -545 149 -297 383 -472 708 -529 94 -16 384 -19 465 -5
319 58 554 235 701 528 44 88 101 253 91 263 -8 7 -315 87 -320 83 -2 -1 -12
-36 -23 -76 -36 -131 -104 -255 -184 -335 -122 -122 -256 -181 -437 -191 -321
-17 -573 120 -707 385 -88 175 -133 489 -107 752 9 92 48 251 83 339 83 209
264 367 476 416 104 24 119 25 218 25 226 1 398 -78 518 -236 27 -36 66 -114
116 -230 l14 -32 143 34 c79 19 151 37 160 41 15 7 13 18 -21 105 -56 140
-120 239 -221 338 -198 194 -448 279 -775 262z"/>
</g>
</svg>
